<svg xmlns="http://www.w3.org/2000/svg" xml:space="preserve" id="Layer_1" x="0" y="0" version="1.1" viewBox="0 0 900 900">
	<path fill="#b8d7de" d="M0 298V0h900v298H0z" />
	<path fill="#d93e26" d="M900 303v297H452.3V303H900z" />
	<path fill="#e2e0df" d="M0 600V303h440c7 0 7 0 7 7v283c0 7 0 7-7 7H0z" />
	<path fill="#3d3d3e" d="M296 900H0V605h296v295z" />
	<path fill="#666667" d="M900 605v295H604V605h296z" />
	<path fill="#911d20" d="M599 900H306c0-22.9 0-45.7-.1-68.6 0-1.8-1.2-3.6-1.9-5.4V605.2c1-.1 2-.2 3-.2h288.5c1.1 0 2.2.2 3.5.3V900z" />
	<path fill="#fff" d="M599 900V605.3c-1.3-.1-2.4-.3-3.5-.3H307c-1 0-2 .1-3 .2-3.8.3-1.9 3.2-1.9 4.8-.1 96.7-.1 193.4-.1 290h-6V605H0v-5h440c7 0 7 0 7-7V310c0-7 0-7-7-7H0v-5h900v5H452.3v297H900v5H604v295h-5z" />
	<path fill="#921d20" d="M302 900c0-96.7 0-193.4.1-290 0-1.5-1.9-4.5 1.9-4.8V900h-2z" />
</svg>
