<?xml version="1.0" encoding="UTF-8"?>
<svg id="Layer_1" data-name="Layer 1" xmlns="http://www.w3.org/2000/svg" viewBox="0 0 900 900">
  <defs>
    <style>
      .cls-1 {
        fill: #fff;
      }

      .cls-2 {
        fill: #f25921;
      }

      .cls-3 {
        fill: #91a5a9;
      }

      .cls-4 {
        fill: #8eb3a2;
      }

      .cls-5 {
        fill: #bfe1ea;
      }

      .cls-6 {
        fill: #42323a;
      }

      .cls-7 {
        fill: #546e75;
      }
    </style>
  </defs>
  <path class="cls-7" d="m900,303v297h-447.66v-297h447.66Z"/>
  <path class="cls-6" d="m0,600v-297h446.69v297H0Z"/>
  <path class="cls-2" d="m599,900h-298v-293.67h298v293.67Z"/>
  <path class="cls-3" d="m296,900H0v-294h296v294Z"/>
  <path class="cls-5" d="m900,606v294h-296c0-95.66,0-191.32,0-286.98q0-7.02,7.02-7.02c96.33,0,192.65,0,288.98,0Z"/>
  <path class="cls-1" d="m900,606c-96.33,0-192.65,0-288.98,0q-7.02,0-7.02,7.02c0,95.66,0,191.32,0,286.98h-5v-293.67h-298v293.67h-5v-294H0v-6h446.69v-297H0v-5c296.91,0,593.82,0,890.73,0,1.5,0,3.01-.14,4.5.03,3.19.36,4.3-.99,3.61-4.03.05-1.49.16-2.99.16-4.48,0-93.68,0-187.36,0-281.03,0-1.49-.1-2.99-.16-4.48.06-1.33.11-2.67.17-4,.33,1.5.96,3,.96,4.5.05,89.83.04,179.67.04,269.5v29h-447.66v297h447.66v6Z"/>
  <path class="cls-4" d="m898.83,294c.69,3.04-.42,4.38-3.61,4.03-1.48-.17-3-.03-4.5-.03-296.91,0-593.82,0-890.73,0C0,198.67,0,99.33,0,0c1.33,0,2.67,0,4,0v4c0,93.99,0,187.98,0,281.97,0,1.5-.45,3.22.13,4.44.68,1.42,2.07,2.86,3.51,3.45,1.43.59,3.28.14,4.95.14,294.14,0,588.28,0,882.42,0h3.83Z"/>
  <path class="cls-4" d="m4,4V0h891v4H4Z"/>
  <path class="cls-4" d="m895,4V0C896.33,0,897.67,0,899,0c-.05,1.33-.11,2.67-.16,4-1.28,0-2.56,0-3.84,0Z"/>
  <path class="cls-4" d="m895,4c1.28,0,2.56,0,3.84,0,.05,1.49.16,2.99.16,4.48,0,93.68,0,187.36,0,281.03,0,1.49-.1,2.99-.16,4.48-1.28,0-2.56,0-3.84,0V4Z"/>
  <path class="cls-4" d="m895,4v290c-294.14,0-588.28,0-882.42,0-1.67,0-3.52.45-4.95-.14-1.43-.59-2.83-2.03-3.51-3.45-.58-1.22-.13-2.94-.13-4.44,0-93.99,0-187.98,0-281.97h891Z"/>
</svg>