<?xml version="1.0" encoding="UTF-8"?>
<svg id="Layer_1" data-name="Layer 1" xmlns="http://www.w3.org/2000/svg" viewBox="0 0 900 900">
  <defs>
    <style>
      .cls-1 {
        fill: #f4f7f0;
      }

      .cls-2 {
        fill: #fff;
      }

      .cls-3 {
        fill: #7c9194;
      }

      .cls-4 {
        fill: #bcab99;
      }

      .cls-5 {
        fill: #c9d7d8;
      }

      .cls-6 {
        fill: #42323a;
      }

      .cls-7 {
        fill: #9babb2;
      }
    </style>
  </defs>
  <path class="cls-5" d="m0,298V1C.33.67.67.33,1,0h898c0,49.92.01,99.84,0,149.76-.01,49.09-.05,98.18-.08,147.26l-.89.89c-2.5.03-5,.08-7.49.08-296.84,0-593.69,0-890.53,0Z"/>
  <path class="cls-3" d="m900,303v297h-447.63v-297h447.63Z"/>
  <path class="cls-7" d="m0,600v-297h446.66v297H0Z"/>
  <path class="cls-4" d="m599,900h-298v-293.66h298v293.66Z"/>
  <path class="cls-1" d="m296,900H0v-294c96.5,0,193,0,289.5,0q6.49,0,6.5,6.5c0,95.83,0,191.67,0,287.5Z"/>
  <path class="cls-6" d="m900,606v294h-296v-294h296Z"/>
  <path class="cls-2" d="m900,606h-296v294h-5v-293.66h-298v293.66h-5c0-95.83,0-191.67,0-287.5q0-6.49-6.5-6.5c-96.5,0-193,0-289.5,0v-6h446.66v-297H0v-5c296.84,0,593.69,0,890.53,0,2.5,0,5-.05,7.49-.08.3-.3.6-.6.89-.89.03-49.09.07-98.18.08-147.26.01-49.92,0-99.84,0-149.76.33,1.5.96,3,.96,4.5.05,89.83.04,179.67.04,269.5v29h-447.63v297h447.63v6Z"/>
  <path class="cls-5" d="m1,0c-.33.33-.67.67-1,1C.33.67.67.33,1,0Z"/>
  <path class="cls-5" d="m898.92,297.02c-.3.3-.6.6-.89.89.3-.3.6-.6.89-.89Z"/>
</svg>