<?xml version="1.0" encoding="UTF-8"?>
<svg id="Layer_1" data-name="Layer 1" xmlns="http://www.w3.org/2000/svg" viewBox="0 0 899 899">
  <defs>
    <style>
      .cls-1 {
        fill: #023059;
      }

      .cls-2 {
        fill: #fff;
      }

      .cls-3 {
        fill: #ffbd38;
      }

      .cls-4 {
        fill: #c0cdd5;
      }

      .cls-5 {
        fill: #d9c3b0;
      }

      .cls-6 {
        fill: #8697a6;
      }

      .cls-7 {
        fill: #5a758c;
      }
    </style>
  </defs>
  <path class="cls-6" d="m0,298V0c299.67,0,599.33,0,899,0,0,99.33,0,198.67,0,298H0Z"/>
  <path class="cls-7" d="m0,600v-297h446.65v297H0Z"/>
  <path class="cls-1" d="m899,303v297h-446.7v-297h446.7Z"/>
  <path class="cls-4" d="m599,899h-298v-37.92c0-82.66,0-165.33,0-247.99q0-7.09,6.97-7.09c94.66,0,189.32,0,283.99,0q7.04,0,7.05,7.01c0,95.33,0,190.66,0,285.99Z"/>
  <path class="cls-5" d="m296,899H0v-293c96.43,0,192.86,0,289.29,0q6.7,0,6.71,6.8c0,95.4,0,190.8,0,286.2Z"/>
  <path class="cls-3" d="m899,606v293h-295v-293h295Z"/>
  <path class="cls-2" d="m899,606h-295v293h-5c0-95.33,0-190.66,0-285.99q0-7.01-7.05-7.01c-94.66,0-189.32,0-283.99,0q-6.96,0-6.97,7.09c0,82.66,0,165.33,0,247.99v37.92h-5c0-95.4,0-190.8,0-286.2q0-6.8-6.71-6.8c-96.43,0-192.86,0-289.29,0v-6h446.65v-297H0v-5h899v5h-446.7v297h446.7v6Z"/>
</svg>